<?xml version="1.0" encoding="UTF-8"?><svg xmlns="http://www.w3.org/2000/svg" xmlns:xlink="http://www.w3.org/1999/xlink" viewBox="0 0 198.36 204.61"><defs><style>.cls-1{fill:url(#linear-gradient-2);}.cls-1,.cls-2,.cls-3,.cls-4{mix-blend-mode:multiply;}.cls-2{fill:url(#linear-gradient-4);}.cls-5{isolation:isolate;}.cls-3{fill:url(#linear-gradient-3);}.cls-4{fill:url(#linear-gradient);}</style><linearGradient id="linear-gradient" x1="64.11" y1="11.81" x2="170.71" y2="84.31" gradientUnits="userSpaceOnUse"><stop offset="0" stop-color="#804e99"/><stop offset=".14" stop-color="#7a4a92"/><stop offset=".34" stop-color="#6b4180"/><stop offset=".58" stop-color="#513262"/><stop offset=".84" stop-color="#2e1d38"/><stop offset="1" stop-color="#160f1b"/></linearGradient><linearGradient id="linear-gradient-2" x1="1.48" y1="115.45" x2="102.2" y2="32.07" gradientUnits="userSpaceOnUse"><stop offset="0" stop-color="#804e99"/><stop offset=".16" stop-color="#7b4b93"/><stop offset=".34" stop-color="#6f4485"/><stop offset=".54" stop-color="#5b386d"/><stop offset=".75" stop-color="#3f274b"/><stop offset=".97" stop-color="#1b1221"/><stop offset="1" stop-color="#160f1b"/></linearGradient><linearGradient id="linear-gradient-3" x1="36.03" y1="105.72" x2="105.74" y2="205.62" gradientTransform="translate(.29 -4.28) rotate(-.16)" gradientUnits="userSpaceOnUse"><stop offset="0" stop-color="#804e99"/><stop offset=".16" stop-color="#7c4b94"/><stop offset=".35" stop-color="#704587"/><stop offset=".54" stop-color="#5e3970"/><stop offset=".73" stop-color="#442a51"/><stop offset=".93" stop-color="#22162a"/><stop offset="1" stop-color="#160f1b"/></linearGradient><linearGradient id="linear-gradient-4" x1="195.85" y1="80.02" x2="102.88" y2="167.65" gradientTransform="translate(-.55 8.26) rotate(.17)" gradientUnits="userSpaceOnUse"><stop offset="0" stop-color="#804e99"/><stop offset=".15" stop-color="#7b4b93"/><stop offset=".34" stop-color="#6d4282"/><stop offset=".56" stop-color="#563567"/><stop offset=".8" stop-color="#362241"/><stop offset="1" stop-color="#160f1b"/></linearGradient></defs><g class="cls-5"><g id="Layer_2"><g id="Artboard_2_Version"><g id="AR_Logo_Vertical"><g id="Petals"><path id="Petal_Top_Right" class="cls-4" d="M151.08,123.38c.45-2.3.8-4.64,1.06-7.01,4.89-45.41-27.96-86.2-73.38-91.09-11.95-1.29-23.59.04-34.33,3.52C57.33,11.5,77.78.44,100.34.01c.03,0,.07,0,.1,0,2.97-.05,5.99.08,9.02.41,2.87.31,5.68.79,8.43,1.42,34.84,7.99,58.95,40.95,55.03,77.35-1.89,17.55-9.97,32.92-21.84,44.19Z"/><path id="Petal_Top_Left" class="cls-1" d="M130.45,59.2c-2.2-.8-4.46-1.52-6.76-2.14-44.1-11.92-89.5,14.17-101.42,58.27-3.14,11.61-3.64,23.31-1.88,34.46C5.31,134.35-2.42,112.43.67,90.08c0-.03,0-.07.01-.1.41-2.95,1.01-5.9,1.81-8.85.75-2.79,1.66-5.49,2.72-8.1C18.54,39.87,54.86,21.18,90.21,30.74c17.04,4.6,30.97,14.98,40.24,28.47Z"/><path id="Petal_Bottom_Left" class="cls-3" d="M54.14,74.48c-.78,2.21-1.48,4.47-2.09,6.78-11.57,44.19,14.87,89.39,59.06,100.96,11.63,3.05,23.34,3.46,34.47,1.61-15.33,15.2-37.19,23.1-59.56,20.18-.03,0-.07,0-.1-.01-2.95-.39-5.91-.96-8.86-1.74-2.79-.73-5.51-1.62-8.13-2.66-33.27-13.07-52.23-49.24-42.95-84.66,4.47-17.07,14.74-31.08,28.15-40.46Z"/><path id="Petal_Bottom_Right" class="cls-2" d="M70.47,152.22c2.25.67,4.54,1.24,6.88,1.73,44.73,9.24,88.49-19.54,97.72-64.28,2.43-11.77,2.23-23.48-.2-34.51,15.98,14.51,25.02,35.93,23.27,58.42,0,.03,0,.07,0,.1-.23,2.97-.65,5.95-1.27,8.94-.58,2.83-1.33,5.58-2.23,8.25-11.3,33.91-46.43,54.74-82.29,47.34-17.29-3.57-31.81-13.09-41.88-25.99Z"/></g></g></g></g></g></svg>