<?xml version="1.0" encoding="UTF-8"?><svg xmlns="http://www.w3.org/2000/svg" xmlns:xlink="http://www.w3.org/1999/xlink" viewBox="0 0 254.81 283.57"><defs><style>.cls-1{fill:url(#linear-gradient-2);}.cls-1,.cls-2,.cls-3,.cls-4{mix-blend-mode:multiply;}.cls-5{fill:#231f20;}.cls-2{fill:url(#linear-gradient-4);}.cls-6{isolation:isolate;}.cls-3{fill:url(#linear-gradient-5);}.cls-7{fill:url(#linear-gradient);opacity:.75;}.cls-4{fill:url(#linear-gradient-3);}</style><linearGradient id="linear-gradient" x1="105.78" y1="205.96" x2="370.47" y2="204.19" gradientUnits="userSpaceOnUse"><stop offset="0" stop-color="#fff"/><stop offset=".11" stop-color="#fafafa"/><stop offset=".24" stop-color="#ededed"/><stop offset=".37" stop-color="#d6d6d6"/><stop offset=".5" stop-color="#b7b7b7"/><stop offset=".64" stop-color="#8f8f8f"/><stop offset=".78" stop-color="#5e5e5e"/><stop offset=".92" stop-color="#252525"/><stop offset="1" stop-color="#000"/></linearGradient><linearGradient id="linear-gradient-2" x1="93.82" y1="11.81" x2="200.41" y2="84.31" gradientUnits="userSpaceOnUse"><stop offset="0" stop-color="#804e99"/><stop offset=".14" stop-color="#7a4a92"/><stop offset=".34" stop-color="#6b4180"/><stop offset=".58" stop-color="#513262"/><stop offset=".84" stop-color="#2e1d38"/><stop offset="1" stop-color="#160f1b"/></linearGradient><linearGradient id="linear-gradient-3" x1="31.19" y1="115.45" x2="131.91" y2="32.07" gradientUnits="userSpaceOnUse"><stop offset="0" stop-color="#804e99"/><stop offset=".16" stop-color="#7b4b93"/><stop offset=".34" stop-color="#6f4485"/><stop offset=".54" stop-color="#5b386d"/><stop offset=".75" stop-color="#3f274b"/><stop offset=".97" stop-color="#1b1221"/><stop offset="1" stop-color="#160f1b"/></linearGradient><linearGradient id="linear-gradient-4" x1="65.73" y1="105.72" x2="135.44" y2="205.62" gradientTransform="translate(.29 -4.19) rotate(-.16)" gradientUnits="userSpaceOnUse"><stop offset="0" stop-color="#804e99"/><stop offset=".16" stop-color="#7c4b94"/><stop offset=".35" stop-color="#704587"/><stop offset=".54" stop-color="#5e3970"/><stop offset=".73" stop-color="#442a51"/><stop offset=".93" stop-color="#22162a"/><stop offset="1" stop-color="#160f1b"/></linearGradient><linearGradient id="linear-gradient-5" x1="225.56" y1="80.02" x2="132.58" y2="167.65" gradientTransform="translate(-.55 8.18) rotate(.17)" gradientUnits="userSpaceOnUse"><stop offset="0" stop-color="#804e99"/><stop offset=".15" stop-color="#7b4b93"/><stop offset=".34" stop-color="#6d4282"/><stop offset=".56" stop-color="#563567"/><stop offset=".8" stop-color="#362241"/><stop offset="1" stop-color="#160f1b"/></linearGradient></defs><g class="cls-6"><g id="Layer_2"><g id="Artboard_2_Version"><g id="AR_Logo_Vertical"><g id="Enhancing_Life_Text"><path class="cls-5" d="M0,280.78l2.54-12h6.65l-.21,1H3.33l-.95,4h4.05l-.19,1H2.23l-1.06,5h5.69l-.21,1H0Z"/><path class="cls-5" d="M8.46,280.78l2.12-10h.96l-.36,1.67c.64-.98,1.71-1.82,3.29-1.82,2.22,0,3.4,1.48,2.88,3.92l-1.32,6.23h-1.01l1.3-6.12c.41-1.94-.23-3.15-2.14-3.15s-3.01,1.1-3.43,3.11l-1.3,6.16h-1Z"/><path class="cls-5" d="M17.93,280.78l2.76-13h.97l-1.04,4.88c.68-1.15,1.79-1.77,3.21-1.77,2.03,0,3.32,1.3,2.79,3.73l-1.3,6.16h-.99l1.27-6.01c.4-1.87-.19-3.04-2.08-3.04s-2.93,1.08-3.35,3.04l-1.27,6.01h-.97Z"/><path class="cls-5" d="M27.7,276.99l.52-2.44c.52-2.47,2.01-3.92,4.18-3.92,1.6,0,2.65.84,2.86,1.8l.36-1.65h.96l-2.12,10h-.96l.34-1.64c-.64.98-1.69,1.81-3.29,1.81-2.21,0-3.38-1.48-2.85-3.97ZM34.16,276.89l.48-2.21c.39-1.84-.39-2.91-2.02-2.91-1.72,0-2.87,1.12-3.28,3.01l-.46,2.11c-.42,1.95.29,3.08,2.01,3.08s2.86-1.14,3.28-3.08Z"/><path class="cls-5" d="M36.42,280.78l2.12-10h.96l-.36,1.67c.64-.98,1.71-1.82,3.29-1.82,2.22,0,3.4,1.48,2.88,3.92l-1.32,6.23h-1.01l1.3-6.12c.41-1.94-.23-3.15-2.14-3.15s-3.01,1.1-3.43,3.11l-1.3,6.16h-1Z"/><path class="cls-5" d="M49.51,280.8c-2.29,0-3.52-1.46-3.03-3.77l.48-2.24c.49-2.35,1.9-3.82,4.2-3.82s3.46,1.31,3.07,3.57l-.04.24h-.97l.04-.25c.29-1.71-.45-2.7-2.1-2.7-1.75,0-2.86,1.04-3.26,3.01l-.48,2.26c-.37,1.75.37,2.86,2.11,2.86,1.62,0,2.71-.98,3.14-2.67l.06-.5h.97l-.05.48c-.53,2.21-1.91,3.54-4.13,3.54h0Z"/><path class="cls-5" d="M54.82,280.78l2.12-10h1.01l-2.12,10h-1.01ZM57.22,268.8c.08-.37.44-.66.82-.66s.59.29.51.66c-.07.36-.42.66-.8.66s-.59-.31-.53-.66Z"/><path class="cls-5" d="M57.86,280.78l2.12-10h.96l-.36,1.67c.64-.98,1.71-1.82,3.29-1.82,2.22,0,3.4,1.48,2.88,3.92l-1.32,6.23h-1.01l1.3-6.12c.41-1.94-.23-3.15-2.14-3.15s-3.01,1.1-3.43,3.11l-1.3,6.16h-1Z"/><path class="cls-5" d="M67.25,280.78h.89c-.22,1.04.15,2.02,2.08,2.02s2.74-.88,3.09-2.53l.36-1.72c-.59.94-1.52,1.69-3.01,1.69-2.05,0-3.14-1.37-2.64-3.69l.48-2.26c.48-2.25,1.8-3.62,3.79-3.62,1.49,0,2.59.69,2.76,1.65l.33-1.54h.89l-1.98,9.34c-.48,2.25-1.36,3.45-4.07,3.45s-3.27-1.34-2.98-2.79ZM74.17,277.06l.54-2.52c.37-1.75-.44-2.77-2.06-2.77-1.72,0-2.87,1.12-3.28,3.01l-.46,2.14c-.42,1.96.27,3.08,1.99,3.08s2.86-1.07,3.26-2.94Z"/><path class="cls-5" d="M80.58,280.78l2.54-12h1l-2.33,11h5.27l-.21,1h-6.27Z"/><path class="cls-5" d="M88.3,280.78l2.12-10h1.01l-2.12,10h-1.01ZM90.69,268.8c.08-.37.44-.66.82-.66s.59.29.51.66c-.07.36-.42.66-.8.66s-.59-.31-.53-.66Z"/><path class="cls-5" d="M92.11,280.78l1.9-9h-1.14l.19-1h1.12c.57-2.41,1.38-3.11,3.91-2.9l-.19.85c-1.93-.2-2.35.47-2.75,2.05h2.24l-.19,1h-2.19l-1.9,9h-1Z"/><path class="cls-5" d="M96.94,277.03l.48-2.29c.49-2.4,1.92-3.81,4.22-3.81s3.54,1.38,3.03,3.72l-.31,2.13h-6.27l-.24.42c-.37,1.73.53,2.77,2.14,2.77,1.48,0,2.59-.88,3.11-2.19h.97c-.52,1.78-2.06,3.02-4.1,3.02-2.29,0-3.52-1.38-3.03-3.77ZM98.24,275.78h5.3l.15-.73c.39-1.87-.44-2.82-2.09-2.82s-2.86,1.04-3.21,2.8l-.15.75Z"/><path class="cls-5" d="M111.8,280.78l2.33-11h-3.37l.21-1h7.76l-.21,1h-3.39l-2.33,11h-1Z"/><path class="cls-5" d="M117.72,280.78l2.76-13h.97l-1.04,4.88c.68-1.15,1.79-1.77,3.21-1.77,2.03,0,3.31,1.3,2.79,3.73l-1.3,6.16h-.99l1.27-6.01c.4-1.87-.19-3.04-2.08-3.04s-2.93,1.08-3.35,3.04l-1.27,6.01h-.97Z"/><path class="cls-5" d="M127.03,280.78l2.12-10h.96l-.39,1.87c.72-1.27,2.05-2.01,3.59-2.01l-.21,1.02c-1.92,0-3.36,1.08-3.79,3.06l-1.28,6.07h-1Z"/><path class="cls-5" d="M132.66,276.74l.42-1.99c.49-2.29,1.89-3.77,4.2-3.77s3.52,1.43,2.99,3.93l-.44,2.07c-.49,2.35-1.95,3.82-4.2,3.82s-3.55-1.38-2.97-4.06ZM138.85,277.08l.51-2.43c.36-1.73-.48-2.77-2.09-2.77s-2.86,1.04-3.21,2.77l-.51,2.43c-.37,1.79.46,2.82,2.12,2.82s2.8-1.04,3.18-2.82Z"/><path class="cls-5" d="M141.62,276.98l1.33-6.2h.95l-1.36,6.36c-.32,1.55.68,2.52,2.19,2.52s2.8-1,3.13-2.52l1.36-6.36h.97l-1.33,6.2c-.44,2.11-1.99,3.52-4.15,3.52s-3.54-1.41-3.09-3.52Z"/><path class="cls-5" d="M150.11,280.78h.89c-.21,1.04.15,2.02,2.08,2.02s2.74-.88,3.09-2.53l.36-1.72c-.6.94-1.52,1.69-3.01,1.69-2.05,0-3.14-1.37-2.64-3.69l.48-2.26c.48-2.25,1.8-3.62,3.79-3.62,1.49,0,2.6.69,2.76,1.65l.33-1.54h.89l-1.98,9.34c-.48,2.25-1.36,3.45-4.07,3.45s-3.27-1.34-2.98-2.79ZM157.02,277.06l.54-2.52c.37-1.75-.44-2.77-2.06-2.77-1.72,0-2.87,1.12-3.28,3.01l-.46,2.14c-.43,1.96.27,3.08,1.99,3.08s2.86-1.07,3.26-2.94Z"/><path class="cls-5" d="M159.43,280.78l2.76-13h.97l-1.04,4.88c.68-1.15,1.79-1.77,3.21-1.77,2.03,0,3.32,1.3,2.79,3.73l-1.3,6.16h-.99l1.27-6.01c.4-1.87-.19-3.04-2.08-3.04s-2.93,1.08-3.35,3.04l-1.27,6.01h-.97Z"/><path class="cls-5" d="M171.73,280.78l6.79-12h1.17l1.65,12h-1.1l-.39-3h-5.3l-1.69,3h-1.15ZM174.98,276.78h4.83l-.9-6.95-3.93,6.95Z"/><path class="cls-5" d="M183.29,276.98l1.33-6.2h.95l-1.36,6.36c-.32,1.55.68,2.52,2.19,2.52s2.8-1,3.13-2.52l1.36-6.36h.97l-1.33,6.2c-.44,2.11-1.99,3.52-4.15,3.52s-3.54-1.41-3.09-3.52Z"/><path class="cls-5" d="M195.69,280.71c-2.81.31-3.52-.85-2.92-3.65l1.09-5.28h-1.09l.15-.51c1.26,0,1.82-2.49,1.82-2.49h.68l-.42,2h2.7l-.19,1h-2.69l-1.07,5.18c-.55,2.56-.31,3.1,2.11,2.87l-.17.88Z"/><path class="cls-5" d="M197.39,276.74l.42-1.99c.49-2.29,1.89-3.77,4.2-3.77s3.52,1.43,2.99,3.93l-.44,2.07c-.49,2.35-1.96,3.82-4.2,3.82s-3.55-1.38-2.97-4.06ZM203.58,277.08l.51-2.43c.36-1.73-.48-2.77-2.09-2.77s-2.86,1.04-3.21,2.77l-.51,2.43c-.37,1.79.46,2.82,2.12,2.82s2.8-1.04,3.18-2.82Z"/><path class="cls-5" d="M205.52,280.78l2.12-10h.96l-.28,1.33c.52-.78,1.32-1.48,2.62-1.48s2.26.66,2.46,1.83c.57-1.05,1.57-1.83,2.97-1.83,1.83,0,2.72,1.32,2.28,3.45l-1.41,6.69h-1.01l1.44-6.83c.32-1.53-.21-2.47-1.62-2.47s-2.37.91-2.69,2.37l-1.46,6.94h-1.01l1.44-6.83c.34-1.57-.27-2.47-1.64-2.47s-2.38.89-2.7,2.37l-1.46,6.94h-1Z"/><path class="cls-5" d="M219.44,276.99l.52-2.44c.52-2.47,2.01-3.92,4.18-3.92,1.6,0,2.65.84,2.87,1.8l.36-1.65h.96l-2.12,10h-.96l.34-1.64c-.64.98-1.69,1.81-3.29,1.81-2.21,0-3.38-1.48-2.85-3.97ZM225.9,276.89l.48-2.21c.39-1.84-.39-2.91-2.02-2.91-1.72,0-2.87,1.12-3.28,3.01l-.46,2.11c-.43,1.95.29,3.08,2.01,3.08s2.86-1.14,3.28-3.08Z"/><path class="cls-5" d="M232.11,280.71c-2.81.31-3.52-.85-2.92-3.65l1.09-5.28h-1.09l.15-.51c1.26,0,1.82-2.49,1.82-2.49h.68l-.42,2h2.7l-.19,1h-2.69l-1.07,5.18c-.55,2.56-.31,3.1,2.11,2.87l-.17.88Z"/><path class="cls-5" d="M233.76,280.78l2.12-10h1.01l-2.12,10h-1.01ZM236.16,268.8c.08-.37.44-.66.82-.66s.59.29.51.66c-.07.36-.42.66-.8.66s-.59-.31-.53-.66Z"/><path class="cls-5" d="M237.57,276.74l.42-1.99c.49-2.29,1.89-3.77,4.2-3.77s3.52,1.43,2.99,3.93l-.44,2.07c-.49,2.35-1.96,3.82-4.2,3.82s-3.55-1.38-2.97-4.06ZM243.76,277.08l.51-2.43c.36-1.73-.48-2.77-2.09-2.77s-2.86,1.04-3.21,2.77l-.51,2.43c-.37,1.79.46,2.82,2.12,2.82s2.8-1.04,3.18-2.82Z"/><path class="cls-5" d="M245.79,280.78l2.12-10h.96l-.36,1.67c.64-.98,1.71-1.82,3.29-1.82,2.22,0,3.4,1.48,2.88,3.92l-1.32,6.23h-1.01l1.3-6.12c.41-1.94-.23-3.15-2.13-3.15s-3.01,1.1-3.43,3.11l-1.3,6.16h-1Z"/></g><g id="Automated_Realms_Text"><path id="_x28_A_x29_UTOMATED_REALMS" class="cls-5" d="M10.3,242.78l7.07,16h-3.12l-1.71-4h-7.31l-1.59,4H.54l6.6-16h3.16ZM6.28,251.78h5.15l-2.69-6.31-2.45,6.31Z"/><path id="A_x28_U_x29_TOMATED_REALMS" class="cls-5" d="M21.86,242.78v9.28c0,.95.14,1.71.41,2.27.27.56.72,1.03,1.33,1.39s1.34.55,2.16.55c.9,0,1.66-.17,2.29-.52s1.09-.82,1.38-1.42c.29-.6.44-1.42.44-2.48v-9.08h4v9.48c0,2.15-.66,3.8-1.99,4.95-1.32,1.15-3.2,1.73-5.62,1.73-1.52,0-2.84-.26-3.96-.79s-1.97-1.28-2.56-2.28-.88-2.16-.88-3.5v-9.59h3Z"/><path id="AU_x28_T_x29_OMATED_REALMS" class="cls-5" d="M49.86,242.78v2h-5v14h-3v-14h-6v-2h14Z"/><path id="AUT_x28_O_x29_MATED_REALMS" class="cls-5" d="M60.18,242.22c1.65,0,3.14.34,4.46,1.02s2.37,1.66,3.16,2.95c.78,1.28,1.18,2.69,1.18,4.22s-.38,2.88-1.15,4.15-1.81,2.26-3.15,2.97c-1.34.7-2.84,1.06-4.51,1.06s-3.15-.36-4.5-1.07c-1.35-.72-2.4-1.7-3.16-2.95s-1.13-2.64-1.13-4.15.38-2.83,1.13-4.12c.75-1.29,1.79-2.29,3.12-3,1.32-.71,2.85-1.07,4.57-1.07ZM54.56,250.4c0,1.06.24,2.01.72,2.85s1.15,1.5,2,1.96c.86.46,1.82.7,2.91.7,1.64,0,2.98-.51,4.04-1.54,1.05-1.03,1.58-2.35,1.58-3.97,0-1.06-.24-2.01-.71-2.86s-1.15-1.5-2.01-1.97c-.86-.46-1.84-.7-2.92-.7s-2.05.23-2.92.7c-.86.47-1.53,1.12-1.99,1.96s-.7,1.79-.7,2.86Z"/><path id="AUTO_x28_M_x29_ATED_REALMS" class="cls-5" d="M74.56,242.78l5.1,6.31,5.1-6.31h3.1v16h-3v-12h-.09l-4.69,6h-.44l-4.69-6h-.09v12h-3v-16h2.7Z"/><path id="AUTOM_x28_A_x29_TED_REALMS" class="cls-5" d="M100.23,242.78l7.07,16h-3.12l-1.71-4h-7.31l-1.59,4h-3.1l6.6-16h3.16ZM96.21,251.78h5.15l-2.69-6.31-2.45,6.31Z"/><path id="AUTOMA_x28_T_x29_ED_REALMS" class="cls-5" d="M119.86,242.78v2h-5v14h-3v-14h-6v-2h14Z"/><path id="AUTOMAT_x28_E_x29_D_REALMS" class="cls-5" d="M132.86,242.78v2h-7v4h7v2h-7v5h7v2h-10v-15h10Z"/><path id="AUTOMATE_x28_D_x29__REALMS" class="cls-5" d="M143.56,242.78c1.66,0,3.15.34,4.44,1.02,1.3.68,2.31,1.63,3.02,2.86.72,1.23,1.08,2.61,1.08,4.15s-.36,2.95-1.08,4.16c-.72,1.21-1.75,2.15-3.08,2.81s-2.85,1-4.57,1h-6.52v-16h6.7ZM143.1,255.78c1.68,0,3.04-.51,4.06-1.52s1.53-2.34,1.53-3.98-.51-3.04-1.54-4.03-2.41-1.48-4.15-1.48h-3.14v11h3.24Z"/><path id="AUTOMATED__x28_R_x29_EALMS" class="cls-5" d="M167.45,242.78c1.46,0,2.65.42,3.57,1.25.92.83,1.38,1.92,1.38,3.25,0,.91-.23,1.7-.68,2.38-.46.68-1.13,1.21-2.03,1.6.5.27.94.65,1.32,1.12.38.47.86,1.27,1.43,2.39.95,1.94,1.65,3.28,2.11,4.01h-2.92c-.24-.36-.58-.94-1-1.74-.92-1.76-1.59-2.95-2.02-3.57s-.84-1.05-1.23-1.31c-.39-.26-.85-.39-1.36-.39h-1.16v7h-3v-16h5.59ZM166.63,248.78c.73,0,1.3-.18,1.71-.54.42-.36.62-.86.62-1.49s-.21-1.15-.62-1.48c-.41-.33-1-.49-1.76-.49h-1.73v4h1.77Z"/><path id="AUTOMATED_R_x28_E_x29_ALMS" class="cls-5" d="M187.86,242.78v2h-8v4h7v2h-7v5h8v2h-10v-15h10Z"/><path id="AUTOMATED_RE_x28_A_x29_LMS" class="cls-5" d="M199.03,242.78l7.07,16h-3.12l-1.71-4h-7.31l-1.59,4h-3.1l6.6-16h3.16ZM195,251.78h5.15l-2.69-6.31-2.45,6.31Z"/><path id="AUTOMATED_REA_x28_L_x29_MS" class="cls-5" d="M210.86,242.78v13h8v2h-11v-15h3Z"/><path id="AUTOMATED_REAL_x28_M_x29_S" class="cls-5" d="M224.56,242.78l5.1,6.31,5.1-6.31h3.1v16h-3v-12h-.09l-4.69,6h-.44l-4.69-6h-.09v12h-3v-16h2.7Z"/><path id="AUTOMATED_REALM_x28_S_x29_" class="cls-5" d="M246.25,241.99c1.6,0,3.13.4,4.61,1.2v2.82c-1.7-1.03-3.2-1.54-4.52-1.54-.8,0-1.42.15-1.87.46-.45.31-.68.72-.68,1.24,0,.62.42,1.19,1.26,1.71.23.16,1.14.6,2.71,1.31,1.35.63,2.32,1.34,2.91,2.11.59.77.89,1.71.89,2.79,0,1.41-.51,2.55-1.52,3.41s-2.33,1.3-3.94,1.3c-1.05,0-1.95-.12-2.7-.35-.76-.23-1.6-.63-2.54-1.19v-3.12c1.75,1.45,3.4,2.18,4.95,2.18.78,0,1.4-.17,1.88-.51.48-.34.72-.78.72-1.34,0-.76-.42-1.38-1.24-1.85-.69-.38-1.58-.83-2.66-1.35-1.29-.59-2.26-1.27-2.89-2.05-.64-.78-.96-1.69-.96-2.72,0-1.38.51-2.47,1.54-3.29s2.38-1.23,4.06-1.23Z"/></g><g id="Shadow_Container"><ellipse id="Shadow" class="cls-7" cx="132.86" cy="205.78" rx="95" ry="22"/></g><g id="Petals"><path id="Petal_Top_Right" class="cls-1" d="M180.78,123.38c.45-2.3.8-4.64,1.06-7.01,4.89-45.41-27.96-86.2-73.38-91.09-11.95-1.29-23.59.04-34.33,3.52C87.03,11.5,107.48.44,130.04.01c.03,0,.07,0,.1,0,2.97-.05,5.99.08,9.02.41,2.87.31,5.68.79,8.43,1.42,34.84,7.99,58.95,40.95,55.03,77.35-1.89,17.55-9.97,32.92-21.84,44.19Z"/><path id="Petal_Top_Left" class="cls-4" d="M160.15,59.2c-2.2-.8-4.46-1.52-6.76-2.14-44.1-11.92-89.5,14.17-101.42,58.27-3.14,11.61-3.64,23.31-1.88,34.46-15.08-15.45-22.81-37.37-19.71-59.72,0-.03,0-.07.01-.1.41-2.95,1.01-5.9,1.81-8.85.75-2.79,1.66-5.49,2.72-8.1,13.32-33.16,49.64-51.85,84.99-42.29,17.04,4.6,30.97,14.98,40.24,28.47Z"/><path id="Petal_Bottom_Left" class="cls-2" d="M83.85,74.48c-.78,2.21-1.48,4.47-2.09,6.78-11.57,44.19,14.87,89.39,59.06,100.96,11.63,3.05,23.34,3.46,34.47,1.61-15.33,15.2-37.19,23.1-59.56,20.18-.03,0-.07,0-.1-.01-2.95-.39-5.91-.96-8.86-1.74-2.79-.73-5.51-1.62-8.13-2.66-33.27-13.07-52.23-49.24-42.95-84.66,4.47-17.07,14.74-31.08,28.15-40.46Z"/><path id="Petal_Bottom_Right" class="cls-3" d="M100.17,152.22c2.25.67,4.54,1.24,6.88,1.73,44.73,9.24,88.49-19.54,97.72-64.28,2.43-11.77,2.23-23.48-.2-34.51,15.98,14.51,25.02,35.93,23.27,58.42,0,.03,0,.07,0,.1-.23,2.97-.65,5.95-1.27,8.94-.58,2.83-1.33,5.58-2.23,8.25-11.3,33.91-46.43,54.74-82.29,47.34-17.29-3.57-31.81-13.09-41.88-25.99Z"/></g></g></g></g></g></svg>